<svg width="70" height="70" viewBox="0 0 70 70" fill="none" xmlns="http://www.w3.org/2000/svg">
<g clip-path="url(#clip0)">
<path d="M23.3342 40.834C24.6233 40.834 25.6674 41.8787 25.6674 43.1673C25.6674 43.8115 26.1898 44.3339 26.8341 44.3339C27.4784 44.3339 28.0007 43.8115 28.0007 43.1673C27.9927 41.0459 26.555 39.1968 24.5008 38.6665V37.3341C24.5008 36.6898 23.9784 36.1674 23.3342 36.1674C22.6899 36.1674 22.1675 36.6898 22.1675 37.3341V38.6665C19.8946 39.2515 18.4124 41.4361 18.7086 43.7642C19.0048 46.0924 20.9872 47.8367 23.3342 47.8338C24.6233 47.8338 25.6674 48.8785 25.6674 50.1671C25.6674 51.4556 24.6233 52.5004 23.3342 52.5004C22.0456 52.5004 21.0009 51.4556 21.0009 50.1671C21.0009 49.5228 20.4785 49.0005 19.8342 49.0005C19.19 49.0005 18.6676 49.5228 18.6676 50.1671C18.6756 52.2885 20.1139 54.1375 22.1675 54.6679V56.0003C22.1675 56.6446 22.6899 57.1669 23.3342 57.1669C23.9784 57.1669 24.5008 56.6446 24.5008 56.0003V54.6713C26.7811 54.092 28.2707 51.9034 27.9739 49.5701C27.6772 47.2363 25.6868 45.4903 23.3342 45.5005C22.0456 45.5005 21.0009 44.4558 21.0009 43.1673C21.0009 41.8787 22.0456 40.834 23.3342 40.834Z" fill="#FFB75E"/>
<path d="M26.8341 29.1676H19.8342C19.19 29.1676 18.6676 29.69 18.6676 30.3342C18.6676 30.9785 19.19 31.5009 19.8342 31.5009H26.8341C27.4784 31.5009 28.0007 30.9785 28.0007 30.3342C28.0007 29.69 27.4784 29.1676 26.8341 29.1676Z" fill="#FFB75E"/>
<path d="M26.8341 61.8335H19.8342C19.19 61.8335 18.6676 62.3558 18.6676 63.0001C18.6676 63.6444 19.19 64.1668 19.8342 64.1668H26.8341C27.4784 64.1668 28.0007 63.6444 28.0007 63.0001C28.0007 62.3558 27.4784 61.8335 26.8341 61.8335Z" fill="#FFB75E"/>
<path d="M63.925 44.9173L46.798 15.2551C47.8519 14.2098 48.7844 13.0483 49.5767 11.7928C51.5215 8.64264 51.869 5.65255 50.5543 3.37567C47.9379 -1.15702 39.6745 -1.12057 31.7422 3.45827C30.6889 4.0752 29.6761 4.75821 28.7094 5.50331L27.7678 4.43464C26.645 3.16319 25.0306 2.43404 23.3342 2.4329C21.6383 2.43404 20.024 3.16319 18.9012 4.43464L6.14732 18.8872C5.19372 19.9672 4.66737 21.3589 4.66794 22.8001V59.5003C4.67477 65.2964 9.37153 69.9938 15.1677 70H31.5007C37.2968 69.9938 41.9942 65.2964 42.0004 59.5003V22.8001C41.9981 21.6762 41.674 20.5762 41.0673 19.63H41.0765C42.4715 18.8234 43.7954 17.9 45.0338 16.8701L61.9045 46.0839C64.1615 49.99 62.8239 54.9858 58.9167 57.2416L44.7723 65.4081C44.1503 65.7636 43.4832 66.0353 42.7894 66.2153C42.1668 66.3811 41.7959 67.0202 41.9617 67.6428C42.1269 68.2655 42.766 68.6363 43.3892 68.4705C44.279 68.2364 45.1346 67.8861 45.9333 67.4286L60.0776 59.2622C65.1025 56.3644 66.8257 49.941 63.925 44.9173ZM39.6671 59.5003C39.662 64.0085 36.0089 67.6616 31.5007 67.6668H15.1677C10.6601 67.6616 7.00635 64.0085 7.00122 59.5003V22.8001C7.00122 21.9274 7.31965 21.0849 7.89728 20.4304L20.6511 5.97953C21.3302 5.2088 22.3071 4.76675 23.3342 4.76618C24.3613 4.76675 25.3388 5.2088 26.0178 5.97953L37.396 18.8741C34.7949 20.1011 31.9524 20.7317 29.0768 20.7198C29.1298 20.4275 29.16 20.1313 29.1674 19.8345C29.164 16.6143 26.5544 14.0053 23.3342 14.0013C23.206 14.0053 23.0795 14.0309 22.9599 14.0771C22.372 14.0047 21.8252 14.3898 21.6942 14.9674C21.2789 16.5619 21.4828 18.2543 22.2644 19.7046C23.0397 20.9886 24.2456 21.9553 25.6675 22.4315C24.6449 23.3646 23.1667 23.6033 21.9021 23.0405C20.6369 22.4771 19.8257 21.2188 19.8343 19.8345C19.8343 19.1902 19.3119 18.6679 18.6676 18.6679C18.0233 18.6679 17.501 19.1902 17.501 19.8345C17.4981 22.4207 19.2002 24.6993 21.6816 25.4296C24.1624 26.1599 26.8278 25.167 28.2263 22.9915C28.6855 23.0399 29.1469 23.0656 29.6089 23.0673C32.8655 22.9687 36.0624 22.1638 38.9779 20.7084C39.4228 21.3156 39.6637 22.0476 39.6671 22.8001V59.5003ZM26.8341 19.8345C26.8295 20.0054 26.8125 20.1757 26.7828 20.3444C25.7535 20.0766 24.862 19.4323 24.2855 18.538C23.9255 17.8812 23.7711 17.1315 23.8417 16.3859C25.5552 16.6371 26.8273 18.1028 26.8341 19.8345ZM39.9087 17.5992C39.7925 17.667 39.6757 17.7251 39.5589 17.7906L30.2605 7.25213C31.107 6.61013 31.9917 6.01998 32.9088 5.48451C39.4809 1.68837 46.6368 1.25942 48.5326 4.55142C49.3996 6.05074 49.0646 8.19148 47.591 10.5772C47.0082 11.5028 46.3366 12.3693 45.5846 13.1634L45.5727 13.1423C44.8532 11.8942 43.7014 10.952 42.3354 10.4929L37.7668 8.94854C37.163 8.76454 36.5221 9.09437 36.321 9.6925C36.1194 10.2912 36.431 10.9412 37.024 11.1593L41.5926 12.6957C42.4191 12.9742 43.1158 13.5445 43.5521 14.2998L43.8495 14.8142C42.6253 15.8641 41.306 16.7972 39.9087 17.6026V17.5992Z" fill="#FFB75E"/>
<path d="M44.4903 47.0256C44.8122 47.5833 45.526 47.7747 46.0836 47.4523L54.1664 42.7857C54.5304 42.5789 54.7554 42.1927 54.7565 41.774C54.7571 41.3553 54.5338 40.9685 54.1709 40.76C53.8075 40.5515 53.3609 40.5532 52.9997 40.7652L44.917 45.4317C44.3593 45.7541 44.1679 46.4673 44.4903 47.0256Z" fill="#FFB75E"/>
<path d="M45.9674 54.2498C46.2887 54.8081 47.0025 55.0001 47.5607 54.6776L57.664 48.8444C58.2223 48.5226 58.4137 47.8088 58.0912 47.2506C57.7694 46.6923 57.0556 46.5009 56.4974 46.8228L46.3941 52.656C45.8364 52.9784 45.645 53.6916 45.9674 54.2498Z" fill="#FFB75E"/>
<path d="M46.6265 40.2232C46.831 40.2232 47.0321 40.1691 47.2098 40.0666L51.2509 37.7333C51.6149 37.5265 51.8399 37.1403 51.8411 36.7216C51.8416 36.3035 51.6183 35.9161 51.2555 35.7076C50.8926 35.4991 50.4454 35.5008 50.0843 35.7127L46.0432 38.046C45.5858 38.3103 45.363 38.8481 45.4997 39.3585C45.6365 39.8683 46.0984 40.2232 46.6265 40.2232Z" fill="#FFB75E"/>
</g>
<defs>
<clipPath id="clip0">
<rect width="70" height="70" fill="white"/>
</clipPath>
</defs>
</svg>
