<svg width="100" height="100" viewBox="0 0 100 100" fill="none" xmlns="http://www.w3.org/2000/svg">
<g clip-path="url(#clip0)">
<path d="M100 30.4268C100 31.8367 98.8464 32.9902 97.4365 32.9902H2.56424C1.15356 32.9902 0 31.8374 0 30.4268V95.726C0 97.2511 1.23596 98.4878 2.76108 98.4878H97.2389C98.764 98.4878 100 97.2511 100 95.726V30.4268Z" fill="#E4EAF8"/>
<path d="M6.03638 95.726V32.9902H2.56424C1.15356 32.9902 0 31.8374 0 30.4268V95.726C0 97.2511 1.23596 98.4878 2.76108 98.4878H8.79822C7.2731 98.4878 6.03638 97.2511 6.03638 95.726Z" fill="#D8DCE5"/>
<path d="M17.9146 61.364H14.3928C12.9181 61.364 11.7225 60.1685 11.7225 58.693C11.7225 57.2182 12.9181 56.0227 14.3928 56.0227H17.9146C19.3893 56.0227 20.5856 57.2182 20.5856 58.693C20.5856 60.1685 19.3893 61.364 17.9146 61.364Z" fill="#576574"/>
<path d="M18.0946 58.6938C18.0946 57.7431 18.592 56.9108 19.3397 56.4377C18.927 56.1761 18.4395 56.0227 17.9146 56.0227H14.3928C12.9181 56.0227 11.7225 57.219 11.7225 58.6938C11.7225 60.1685 12.9181 61.364 14.3928 61.364H17.9146C18.4395 61.364 18.927 61.2107 19.3397 60.9498C18.592 60.476 18.0946 59.6436 18.0946 58.6938Z" fill="#3E4B5A"/>
<path d="M97.6562 33.9966H2.34375C1.05438 33.9966 0 32.9422 0 31.6528V12.6221C0 11.3327 1.05438 10.2783 2.34375 10.2783H97.6562C98.9456 10.2783 100 11.3327 100 12.6221V31.6528C100 32.9422 98.9456 33.9966 97.6562 33.9966Z" fill="#FFB75E"/>
<path d="M6.03638 10.2783H2.4147C1.08643 10.2783 0 11.3647 0 12.693V31.5819C0 32.9102 1.08643 33.9966 2.4147 33.9966H6.03638V10.2783Z" fill="#FF9F29"/>
<path d="M9.62909 19.371C8.7952 19.371 8.12 18.6958 8.12 17.8619V3.26691C8.12 2.43378 8.7952 1.75781 9.62909 1.75781C10.4622 1.75781 11.1382 2.43378 11.1382 3.26691V17.8619C11.1382 18.6958 10.4622 19.371 9.62909 19.371Z" fill="#576574"/>
<path d="M20.0974 19.371C19.2642 19.371 18.5883 18.6958 18.5883 17.8619V3.26691C18.5883 2.43378 19.2642 1.75781 20.0974 1.75781C20.9312 1.75781 21.6072 2.43378 21.6072 3.26691V17.8619C21.6072 18.6958 20.9312 19.371 20.0974 19.371Z" fill="#576574"/>
<path d="M30.5665 19.371C29.7333 19.371 29.0574 18.6958 29.0574 17.8619V3.26691C29.0574 2.43378 29.7326 1.75781 30.5665 1.75781C31.4004 1.75781 32.0756 2.43378 32.0756 3.26691V17.8619C32.0756 18.6958 31.3996 19.371 30.5665 19.371Z" fill="#576574"/>
<path d="M69.4337 19.371C68.6005 19.371 67.9246 18.6958 67.9246 17.8619V3.26691C67.9246 2.43378 68.5998 1.75781 69.4337 1.75781C70.2668 1.75781 70.9427 2.43378 70.9427 3.26691V17.8619C70.9427 18.6958 70.2675 19.371 69.4337 19.371Z" fill="#576574"/>
<path d="M79.9027 19.371C79.0688 19.371 78.3928 18.6958 78.3928 17.8619V3.26691C78.3928 2.43378 79.0688 1.75781 79.9027 1.75781C80.7358 1.75781 81.4118 2.43378 81.4118 3.26691V17.8619C81.4118 18.6958 80.7358 19.371 79.9027 19.371Z" fill="#576574"/>
<path d="M90.371 19.371C89.5379 19.371 88.8619 18.6958 88.8619 17.8619V3.26691C88.8619 2.43378 89.5379 1.75781 90.371 1.75781C91.2049 1.75781 91.8801 2.43378 91.8801 3.26691V17.8619C91.8801 18.6958 91.2049 19.371 90.371 19.371Z" fill="#576574"/>
<path d="M56.4804 23.6466H43.5196C42.6857 23.6466 42.0105 22.9706 42.0105 22.1375C42.0105 21.3036 42.6857 20.6284 43.5196 20.6284H56.4804C57.3143 20.6284 57.9895 21.3036 57.9895 22.1375C57.9895 22.9706 57.3143 23.6466 56.4804 23.6466Z" fill="#FF9F29"/>
<path d="M17.9146 74.6132H14.3928C12.9181 74.6132 11.7225 73.4176 11.7225 71.9429C11.7225 70.4681 12.9181 69.2726 14.3928 69.2726H17.9146C19.3893 69.2726 20.5856 70.4681 20.5856 71.9429C20.5856 73.4176 19.3893 74.6132 17.9146 74.6132Z" fill="#576574"/>
<path d="M18.0946 71.9429C18.0946 70.9922 18.592 70.1606 19.3397 69.6869C18.927 69.4259 18.4395 69.2726 17.9146 69.2726H14.3928C12.9181 69.2726 11.7225 70.4681 11.7225 71.9429C11.7225 73.4176 12.9181 74.6139 14.3928 74.6139H17.9146C18.4395 74.6139 18.927 74.4598 19.3397 74.1989C18.592 73.7251 18.0946 72.8935 18.0946 71.9429Z" fill="#3E4B5A"/>
<path d="M17.9146 87.8632H14.3928C12.9181 87.8632 11.7225 86.6677 11.7225 85.1921C11.7225 83.7174 12.9181 82.5219 14.3928 82.5219H17.9146C19.3893 82.5219 20.5856 83.7174 20.5856 85.1921C20.5856 86.6669 19.3893 87.8632 17.9146 87.8632Z" fill="#576574"/>
<path d="M18.0946 85.1929C18.0946 84.2423 18.592 83.4099 19.3397 82.9369C18.927 82.6752 18.4395 82.5219 17.9146 82.5219H14.3928C12.9181 82.5219 11.7225 83.7181 11.7225 85.1929C11.7225 86.6677 12.9181 87.8632 14.3928 87.8632H17.9146C18.4395 87.8632 18.927 87.7098 19.3397 87.4489C18.592 86.9751 18.0946 86.1428 18.0946 85.1929Z" fill="#3E4B5A"/>
<path d="M34.838 61.364H31.3163C29.8408 61.364 28.6453 60.1685 28.6453 58.693C28.6453 57.2182 29.8408 56.0227 31.3163 56.0227H34.838C36.3128 56.0227 37.5083 57.2182 37.5083 58.693C37.5083 60.1685 36.3128 61.364 34.838 61.364Z" fill="#576574"/>
<path d="M35.0173 58.6938C35.0173 57.7431 35.5155 56.9108 36.2625 56.4377C35.8505 56.1761 35.3622 56.0227 34.838 56.0227H31.3163C29.8408 56.0227 28.6453 57.219 28.6453 58.6938C28.6453 60.1685 29.8408 61.364 31.3163 61.364H34.838C35.3622 61.364 35.8505 61.2107 36.2625 60.9498C35.5155 60.476 35.0173 59.6436 35.0173 58.6938Z" fill="#3E4B5A"/>
<path d="M34.838 74.6132H31.3163C29.8408 74.6132 28.6453 73.4176 28.6453 71.9429C28.6453 70.4681 29.8408 69.2726 31.3163 69.2726H34.838C36.3128 69.2726 37.5083 70.4681 37.5083 71.9429C37.5083 73.4176 36.3128 74.6132 34.838 74.6132Z" fill="#576574"/>
<path d="M35.0173 71.9429C35.0173 70.9922 35.5155 70.1606 36.2625 69.6869C35.8505 69.4259 35.3622 69.2726 34.838 69.2726H31.3163C29.8408 69.2726 28.6453 70.4681 28.6453 71.9429C28.6453 73.4176 29.8408 74.6139 31.3163 74.6139H34.838C35.3622 74.6139 35.8505 74.4598 36.2625 74.1989C35.5155 73.7251 35.0173 72.8935 35.0173 71.9429Z" fill="#3E4B5A"/>
<path d="M34.838 87.8632H31.3163C29.8408 87.8632 28.6453 86.6677 28.6453 85.1921C28.6453 83.7174 29.8408 82.5219 31.3163 82.5219H34.838C36.3128 82.5219 37.5083 83.7174 37.5083 85.1921C37.5083 86.6669 36.3128 87.8632 34.838 87.8632Z" fill="#576574"/>
<path d="M35.0173 85.1929C35.0173 84.2423 35.5155 83.4099 36.2625 82.9369C35.8505 82.6752 35.3622 82.5219 34.838 82.5219H31.3163C29.8408 82.5219 28.6453 83.7181 28.6453 85.1929C28.6453 86.6677 29.8408 87.8632 31.3163 87.8632H34.838C35.3622 87.8632 35.8505 87.7098 36.2625 87.4489C35.5155 86.9751 35.0173 86.1428 35.0173 85.1929Z" fill="#3E4B5A"/>
<path d="M51.7609 61.364H48.2392C46.7644 61.364 45.5681 60.1685 45.5681 58.693C45.5681 57.2182 46.7644 56.0227 48.2392 56.0227H51.7609C53.2357 56.0227 54.4312 57.2182 54.4312 58.693C54.4312 60.1685 53.2357 61.364 51.7609 61.364Z" fill="#576574"/>
<path d="M51.9402 58.6938C51.9402 57.7431 52.4384 56.9108 53.1861 56.4377C52.7733 56.1761 52.2858 56.0227 51.7609 56.0227H48.2392C46.7644 56.0227 45.5681 57.219 45.5681 58.6938C45.5681 60.1685 46.7644 61.364 48.2392 61.364H51.7609C52.2858 61.364 52.7733 61.2107 53.1861 60.9498C52.4384 60.476 51.9402 59.6436 51.9402 58.6938Z" fill="#3E4B5A"/>
<path d="M51.7609 74.6132H48.2392C46.7644 74.6132 45.5681 73.4176 45.5681 71.9429C45.5681 70.4681 46.7644 69.2726 48.2392 69.2726H51.7609C53.2357 69.2726 54.4312 70.4681 54.4312 71.9429C54.4312 73.4176 53.2357 74.6132 51.7609 74.6132Z" fill="#576574"/>
<path d="M51.9402 71.9429C51.9402 70.9922 52.4384 70.1606 53.1861 69.6869C52.7733 69.4259 52.2858 69.2726 51.7609 69.2726H48.2392C46.7644 69.2726 45.5681 70.4681 45.5681 71.9429C45.5681 73.4176 46.7644 74.6139 48.2392 74.6139H51.7609C52.2858 74.6139 52.7733 74.4598 53.1861 74.1989C52.4384 73.7251 51.9402 72.8935 51.9402 71.9429Z" fill="#3E4B5A"/>
<path d="M51.7609 87.8632H48.2392C46.7644 87.8632 45.5681 86.6677 45.5681 85.1921C45.5681 83.7174 46.7644 82.5219 48.2392 82.5219H51.7609C53.2357 82.5219 54.4312 83.7174 54.4312 85.1921C54.4312 86.6669 53.2357 87.8632 51.7609 87.8632Z" fill="#576574"/>
<path d="M51.9402 85.1929C51.9402 84.2423 52.4384 83.4099 53.1861 82.9369C52.7733 82.6752 52.2858 82.5219 51.7609 82.5219H48.2392C46.7644 82.5219 45.5681 83.7181 45.5681 85.1929C45.5681 86.6677 46.7644 87.8632 48.2392 87.8632H51.7609C52.2858 87.8632 52.7733 87.7098 53.1861 87.4489C52.4384 86.9751 51.9402 86.1428 51.9402 85.1929Z" fill="#3E4B5A"/>
<path d="M68.6836 48.114H65.1619C63.6871 48.114 62.4916 46.9185 62.4916 45.4438C62.4916 43.9682 63.6871 42.7727 65.1619 42.7727H68.6836C70.1591 42.7727 71.3546 43.969 71.3546 45.4438C71.3546 46.9185 70.1591 48.114 68.6836 48.114Z" fill="#576574"/>
<path d="M68.8636 45.4437C68.8636 44.4931 69.3611 43.6615 70.1088 43.1877C69.696 42.9268 69.2085 42.7734 68.6836 42.7734H65.1619C63.6871 42.7734 62.4916 43.969 62.4916 45.4437C62.4916 46.9185 63.6871 48.1148 65.1619 48.1148H68.6836C69.2085 48.1148 69.696 47.9607 70.1088 47.6997C69.3611 47.226 68.8636 46.3943 68.8636 45.4437Z" fill="#3E4B5A"/>
<path d="M68.6836 61.364H65.1619C63.6871 61.364 62.4916 60.1685 62.4916 58.693C62.4916 57.2182 63.6871 56.0227 65.1619 56.0227H68.6836C70.1591 56.0227 71.3546 57.2182 71.3546 58.693C71.3546 60.1685 70.1591 61.364 68.6836 61.364Z" fill="#576574"/>
<path d="M68.8636 58.6938C68.8636 57.7431 69.3611 56.9108 70.1088 56.4377C69.696 56.1761 69.2085 56.0227 68.6836 56.0227H65.1619C63.6871 56.0227 62.4916 57.219 62.4916 58.6938C62.4916 60.1685 63.6871 61.364 65.1619 61.364H68.6836C69.2085 61.364 69.696 61.2107 70.1088 60.9498C69.3611 60.476 68.8636 59.6436 68.8636 58.6938Z" fill="#3E4B5A"/>
<path d="M68.6836 74.6132H65.1619C63.6871 74.6132 62.4916 73.4176 62.4916 71.9429C62.4916 70.4681 63.6871 69.2726 65.1619 69.2726H68.6836C70.1591 69.2726 71.3546 70.4681 71.3546 71.9429C71.3546 73.4176 70.1591 74.6132 68.6836 74.6132Z" fill="#576574"/>
<path d="M68.8636 71.9429C68.8636 70.9922 69.3611 70.1606 70.1088 69.6869C69.696 69.4259 69.2085 69.2726 68.6836 69.2726H65.1619C63.6871 69.2726 62.4916 70.4681 62.4916 71.9429C62.4916 73.4176 63.6871 74.6139 65.1619 74.6139H68.6836C69.2085 74.6139 69.696 74.4598 70.1088 74.1989C69.3611 73.7251 68.8636 72.8935 68.8636 71.9429Z" fill="#3E4B5A"/>
<path d="M85.6071 48.114H82.0854C80.6106 48.114 79.4143 46.9185 79.4143 45.4438C79.4143 43.9682 80.6098 42.7727 82.0854 42.7727H85.6071C87.0818 42.7727 88.2774 43.969 88.2774 45.4438C88.2774 46.9185 87.0818 48.114 85.6071 48.114Z" fill="#576574"/>
<path d="M85.7864 45.4437C85.7864 44.4931 86.2846 43.6615 87.0323 43.1877C86.6195 42.9268 86.1312 42.7734 85.6071 42.7734H82.0854C80.6098 42.7734 79.4143 43.969 79.4143 45.4437C79.4143 46.9185 80.6098 48.1148 82.0854 48.1148H85.6071C86.1312 48.1148 86.6195 47.9607 87.0323 47.6997C86.2846 47.226 85.7864 46.3943 85.7864 45.4437Z" fill="#3E4B5A"/>
<path d="M85.6071 61.364H82.0854C80.6106 61.364 79.4143 60.1685 79.4143 58.693C79.4143 57.2182 80.6098 56.0227 82.0854 56.0227H85.6071C87.0818 56.0227 88.2774 57.2182 88.2774 58.693C88.2774 60.1685 87.0818 61.364 85.6071 61.364Z" fill="#576574"/>
<path d="M85.7864 58.6938C85.7864 57.7431 86.2846 56.9108 87.0323 56.4377C86.6195 56.1761 86.1312 56.0227 85.6071 56.0227H82.0854C80.6098 56.0227 79.4143 57.219 79.4143 58.6938C79.4143 60.1685 80.6098 61.364 82.0854 61.364H85.6071C86.1312 61.364 86.6195 61.2107 87.0323 60.9498C86.2846 60.476 85.7864 59.6436 85.7864 58.6938Z" fill="#3E4B5A"/>
<path d="M85.6071 74.6132H82.0854C80.6106 74.6132 79.4143 73.4176 79.4143 71.9429C79.4143 70.4681 80.6098 69.2726 82.0854 69.2726H85.6071C87.0818 69.2726 88.2774 70.4681 88.2774 71.9429C88.2774 73.4176 87.0818 74.6132 85.6071 74.6132Z" fill="#576574"/>
<path d="M85.7864 71.9429C85.7864 70.9922 86.2846 70.1606 87.0323 69.6869C86.6195 69.4259 86.1312 69.2726 85.6071 69.2726H82.0854C80.6098 69.2726 79.4143 70.4681 79.4143 71.9429C79.4143 73.4176 80.6098 74.6139 82.0854 74.6139H85.6071C86.1312 74.6139 86.6195 74.4598 87.0323 74.1989C86.2846 73.7251 85.7864 72.8935 85.7864 71.9429Z" fill="#3E4B5A"/>
<path d="M51.7609 48.114H48.2392C46.7644 48.114 45.5681 46.9185 45.5681 45.4438C45.5681 43.9682 46.7644 42.7727 48.2392 42.7727H51.7609C53.2357 42.7727 54.4312 43.969 54.4312 45.4438C54.4312 46.9185 53.2357 48.114 51.7609 48.114Z" fill="#576574"/>
<path d="M51.9402 45.4437C51.9402 44.4931 52.4384 43.6615 53.1861 43.1877C52.7733 42.9268 52.2858 42.7734 51.7609 42.7734H48.2392C46.7644 42.7734 45.5681 43.969 45.5681 45.4437C45.5681 46.9185 46.7644 48.1148 48.2392 48.1148H51.7609C52.2858 48.1148 52.7733 47.9607 53.1861 47.6997C52.4384 47.226 51.9402 46.3943 51.9402 45.4437Z" fill="#3E4B5A"/>
</g>
<defs>
<clipPath id="clip0">
<rect width="100" height="100" fill="white"/>
</clipPath>
</defs>
</svg>
