<svg width="64" height="64" viewBox="0 0 64 64" fill="none" xmlns="http://www.w3.org/2000/svg">
<path d="M32 25C33.1867 25 34.3467 24.6481 35.3334 23.9888C36.3201 23.3295 37.0891 22.3925 37.5433 21.2961C37.9974 20.1997 38.1162 18.9933 37.8847 17.8295C37.6532 16.6656 37.0818 15.5965 36.2426 14.7574C35.4035 13.9182 34.3344 13.3468 33.1705 13.1153C32.0067 12.8838 30.8003 13.0026 29.7039 13.4567C28.6075 13.9108 27.6705 14.6799 27.0112 15.6666C26.3519 16.6533 26 17.8133 26 19C26.0017 20.5908 26.6344 22.1159 27.7593 23.2407C28.8841 24.3656 30.4092 24.9983 32 25ZM32 15C32.7911 15 33.5645 15.2346 34.2223 15.6741C34.8801 16.1136 35.3928 16.7384 35.6955 17.4693C35.9983 18.2002 36.0775 19.0044 35.9231 19.7804C35.7688 20.5563 35.3878 21.269 34.8284 21.8284C34.269 22.3878 33.5563 22.7688 32.7804 22.9231C32.0044 23.0775 31.2002 22.9983 30.4693 22.6955C29.7384 22.3928 29.1136 21.8801 28.6741 21.2223C28.2346 20.5645 28 19.7911 28 19C28.0011 17.9395 28.4229 16.9227 29.1728 16.1728C29.9227 15.4229 30.9395 15.0011 32 15Z" fill="#FFB75E"/>
<path d="M20 18H24V20H20V18Z" fill="#FFB75E"/>
<path d="M40 18H44V20H40V18Z" fill="#FFB75E"/>
<path d="M37 27H40V29H37V27Z" fill="#FFB75E"/>
<path d="M29 27H35V29H29V27Z" fill="#FFB75E"/>
<path d="M24 27H27V29H24V27Z" fill="#FFB75E"/>
<path d="M21 31H30V33H21V31Z" fill="#FFB75E"/>
<path d="M34 31H43V33H34V31Z" fill="#FFB75E"/>
<path d="M27 35H29V37H27V35Z" fill="#FFB75E"/>
<path d="M31 35H37V37H31V35Z" fill="#FFB75E"/>
<path d="M60 3H4C3.46975 3.00061 2.9614 3.21151 2.58646 3.58646C2.21151 3.9614 2.00061 4.46975 2 5V49C2.00061 49.5302 2.21151 50.0386 2.58646 50.4135C2.9614 50.7885 3.46975 50.9994 4 51H37.9462L35.1523 55.4702C35.0576 55.6215 35.005 55.7954 35.0002 55.9739C34.9955 56.1524 35.0386 56.3289 35.1251 56.485C35.2116 56.6412 35.3384 56.7713 35.4923 56.8619C35.6461 56.9525 35.8215 57.0001 36 57H39.3818L41.1055 60.4473C41.1849 60.6061 41.3052 60.7409 41.454 60.8379C41.6028 60.9349 41.7747 60.9905 41.9521 60.999C41.9688 60.9995 41.9844 61 42 61C42.1696 61.0001 42.3364 60.9569 42.4847 60.8747C42.633 60.7924 42.7579 60.6737 42.8477 60.5298L47.5674 52.9781C47.7119 52.9843 47.854 53 48 53C48.146 53 48.2881 52.9843 48.4326 52.9781L53.1523 60.5298C53.2421 60.6737 53.367 60.7924 53.5153 60.8747C53.6636 60.9569 53.8304 61.0001 54 61C54.0156 61 54.0312 60.9995 54.0479 60.999C54.2253 60.9905 54.3972 60.9349 54.546 60.8379C54.6948 60.7409 54.8151 60.6061 54.8945 60.4473L56.6182 57H60C60.1785 57.0001 60.3539 56.9525 60.5077 56.8619C60.6616 56.7713 60.7884 56.6412 60.8749 56.485C60.9614 56.3289 61.0045 56.1524 60.9998 55.9739C60.995 55.7954 60.9424 55.6215 60.8477 55.4702L58.0538 51H60C60.5302 50.9994 61.0386 50.7885 61.4135 50.4135C61.7885 50.0386 61.9994 49.5302 62 49V5C61.9994 4.46975 61.7885 3.9614 61.4135 3.58646C61.0386 3.21151 60.5302 3.00061 60 3ZM10 43V11H54V35.0191C52.5175 33.8984 50.7516 33.2138 48.901 33.0425C47.0505 32.8712 45.1889 33.2199 43.5259 34.0494C41.8628 34.879 40.4644 36.1563 39.4881 37.7377C38.5118 39.319 37.9965 41.1416 38 43H10ZM8.07452 10.4886C8.02739 10.6551 8.00233 10.827 8 11V43C8.00233 43.173 8.02739 43.3449 8.07452 43.5114L4 47.5859V6.41406L8.07452 10.4886ZM54.5114 9.07459C54.3449 9.02744 54.173 9.00236 54 9H10C9.82702 9.00236 9.6551 9.02744 9.48865 9.07458L5.41406 5H58.5859L54.5114 9.07459ZM5.41406 49L9.48865 44.9254C9.6551 44.9726 9.82702 44.9976 10 45H38.2016C38.4495 46.2023 38.9182 47.3482 39.584 48.3796L39.1962 49H5.41406ZM42.0967 57.958L40.8945 55.5527C40.8114 55.3867 40.6837 55.247 40.5257 55.1494C40.3678 55.0517 40.1857 55 40 55H37.8047L40.9053 50.038C42.1514 51.2918 43.7076 52.1928 45.4154 52.6491L42.0967 57.958ZM40 43C40 41.4178 40.4692 39.871 41.3482 38.5554C42.2273 37.2398 43.4767 36.2145 44.9385 35.609C46.4003 35.0035 48.0089 34.845 49.5607 35.1537C51.1126 35.4624 52.538 36.2243 53.6569 37.3431C54.7757 38.462 55.5376 39.8874 55.8463 41.4393C56.155 42.9911 55.9965 44.5997 55.391 46.0615C54.7855 47.5233 53.7602 48.7727 52.4446 49.6518C51.129 50.5308 49.5822 51 48 51C45.879 50.9976 43.8456 50.1539 42.3458 48.6542C40.8461 47.1544 40.0024 45.121 40 43ZM56 55C55.8143 55 55.6322 55.0517 55.4743 55.1494C55.3163 55.247 55.1886 55.3867 55.1055 55.5527L53.9033 57.958L50.5846 52.6491C52.2924 52.1928 53.8486 51.2918 55.0947 50.038L58.1953 55H56ZM56.8038 49L56.416 48.3796C57.5201 46.6675 58.0706 44.657 57.9928 42.6212C57.9149 40.5854 57.2125 38.6229 55.9809 37H56V11C55.9977 10.827 55.9726 10.6551 55.9255 10.4886L60 6.41406V49H56.8038Z" fill="#FFB75E"/>
<path d="M52.2422 38.7573L50.8281 40.1714C51.1996 40.5428 51.4944 40.9838 51.6954 41.4691C51.8965 41.9545 52 42.4747 52 43C52 43.5253 51.8965 44.0455 51.6954 44.5309C51.4944 45.0162 51.1996 45.4572 50.8281 45.8286C49.3164 47.3394 46.6836 47.3394 45.1719 45.8286L43.7578 47.2427C44.3149 47.8001 44.9763 48.2422 45.7044 48.5439C46.4324 48.8456 47.2127 49.001 48.0007 49.001C48.7888 49.0011 49.5691 48.8459 50.2972 48.5444C51.0253 48.2428 51.6868 47.8008 52.244 47.2435C52.8012 46.6862 53.2432 46.0247 53.5446 45.2966C53.8461 44.5685 54.0012 43.7881 54.001 43C54.0009 42.212 53.8454 41.4317 53.5437 40.7037C53.2419 39.9757 52.7996 39.3144 52.2422 38.7573Z" fill="#FFB75E"/>
</svg>
