<svg width="15" height="15" viewBox="0 0 15 15" fill="none" xmlns="http://www.w3.org/2000/svg">
<g opacity="0.25">
<path d="M13.6816 1.78711H1.31835C1.11541 1.78711 0.925422 1.837 0.753538 1.91924L7.4707 8.6364L8.97623 7.18951L14.2467 1.91936C14.0747 1.83706 13.8846 1.78711 13.6816 1.78711Z" fill="white"/>
<path d="M14.868 2.54083L9.90858 7.50003L14.8679 12.4593C14.9501 12.2874 15 12.0974 15 11.8945V3.10544C15 2.90262 14.9502 2.71266 14.868 2.54083Z" fill="white"/>
<path d="M0.132129 2.54065C0.0498926 2.71253 0 2.90252 0 3.10546V11.8945C0 12.0973 0.049834 12.2874 0.132012 12.4592L5.09147 7.49999L0.132129 2.54065Z" fill="white"/>
<path d="M9.28718 8.12148L7.78144 9.56853C7.6956 9.65437 7.58316 9.6973 7.47074 9.6973C7.35833 9.6973 7.24586 9.65437 7.16005 9.56853L5.7129 8.12142L0.753351 13.0806C0.925265 13.1629 1.11537 13.2129 1.31837 13.2129H13.6817C13.8846 13.2129 14.0746 13.163 14.2465 13.0808L9.28718 8.12148Z" fill="white"/>
</g>
</svg>
