<svg width="15" height="15" viewBox="0 0 15 15" fill="none" xmlns="http://www.w3.org/2000/svg">
<g opacity="0.25" clip-path="url(#clip0)">
<path d="M14.2697 1.95829L12.3046 0L8.22367 4.07416L9.80572 5.70805C9.54059 6.17873 8.96532 7.08034 7.9849 8.06073C7.00436 9.04129 6.09616 9.62313 5.621 9.89248L4.01916 8.31107L0.00195312 12.3044L1.95629 14.2717C2.70333 15.0188 3.84001 15.2123 4.78478 14.7535C6.22647 14.0533 8.40226 12.7613 10.5808 10.5828C12.7593 8.40429 14.0512 6.22848 14.7515 4.78678C14.9174 4.44518 14.998 4.07853 14.998 3.71425C14.998 3.07101 14.7466 2.43521 14.2697 1.95829ZM13.6982 4.27514C13.0372 5.63606 11.8162 7.69141 9.75278 9.75479C7.68935 11.8182 5.63403 13.0392 4.27317 13.7002C3.77702 13.9412 3.17864 13.8381 2.78562 13.4451L1.65763 12.3096L4.02206 9.95934L5.38668 11.3065L5.75178 11.1439C5.8111 11.1175 7.22315 10.4786 8.81297 8.88874C10.4038 7.29787 11.0295 5.89777 11.0554 5.83891L11.2137 5.47871L9.86713 4.08808L12.3054 1.65381L13.4422 2.78668C13.8361 3.18117 13.9391 3.77926 13.6982 4.27514Z" fill="white"/>
</g>
<defs>
<clipPath id="clip0">
<rect width="15" height="15" fill="white"/>
</clipPath>
</defs>
</svg>
