<svg width="20" height="20" viewBox="0 0 20 20" fill="none" xmlns="http://www.w3.org/2000/svg">
<g clip-path="url(#clip0)">
<path d="M2.24594 12.3265L3.72513 10.8473L10.3812 4.19153C11.6079 2.97401 13.5881 2.97769 14.8102 4.1998C16.0323 5.42192 16.036 7.40208 14.8185 8.62879L8.16268 15.2866C7.89046 15.559 7.44889 15.559 7.17651 15.2866C6.90428 15.0142 6.90428 14.5728 7.17651 14.3004L13.8323 7.64261C14.513 6.96189 14.513 5.85843 13.8323 5.17771C13.1516 4.49699 12.0481 4.49699 11.3674 5.17771L4.70962 11.8335L3.23043 13.3125C2.00495 14.5385 2.00541 16.5257 3.2312 17.751C4.45714 18.9763 6.44419 18.976 7.66967 17.7501L8.90205 16.5173L15.8045 9.61481L16.2977 9.1218C18.0214 7.3442 17.9995 4.5123 16.2487 2.76134C14.4977 1.01054 11.6658 0.988648 9.88822 2.71235L2.49275 10.108C2.31653 10.284 2.05976 10.3528 1.81923 10.2883C1.57854 10.2239 1.39052 10.036 1.32607 9.79532C1.26161 9.55464 1.33051 9.29803 1.50658 9.1218L8.90205 1.72633C11.2181 -0.579188 14.9633 -0.574901 17.274 1.73597C19.5849 4.04669 19.5892 7.79189 17.2837 10.108L9.88822 17.5034L8.65401 18.7363C6.87412 20.4459 4.05339 20.4174 2.30857 18.672C0.563583 16.9267 0.53587 14.106 2.24594 12.3265Z" fill="#FFB75E"/>
</g>
<defs>
<clipPath id="clip0">
<rect width="20" height="20" fill="white" transform="matrix(-1 0 0 1 20 0)"/>
</clipPath>
</defs>
</svg>
