<svg width="64" height="64" viewBox="0 0 64 64" fill="none" xmlns="http://www.w3.org/2000/svg">
<path d="M62 33.2297C62.0037 32.0756 61.6597 30.9471 61.0127 29.9914C60.3656 29.0357 59.4457 28.2972 58.3727 27.8721C57.2784 27.4319 56.3573 26.6474 55.7485 25.6372L53.8575 22.4855C53.7686 22.3375 53.643 22.2149 53.4927 22.1298C53.3424 22.0447 53.1727 22 53 22C52.8273 22 52.6575 22.0447 52.5073 22.1298C52.357 22.2149 52.2313 22.3375 52.1425 22.4855L50.2515 25.6371C49.6427 26.6474 48.7215 27.4319 47.6272 27.8721C46.6114 28.2782 45.7319 28.9649 45.0915 29.852C44.4511 30.7391 44.0762 31.7899 44.0104 32.882C43.9447 33.9741 44.1908 35.0624 44.7201 36.0199C45.2495 36.9774 46.0402 37.7647 47 38.2898V39.8571C46.5154 39.4415 45.9656 39.1087 45.3727 38.8721C44.2784 38.4319 43.3573 37.6474 42.7485 36.6372L40.8575 33.4855C40.7686 33.3375 40.6429 33.2149 40.4927 33.1298C40.3424 33.0447 40.1727 33 40 33V26H39.9986C39.9991 25.8127 39.9469 25.629 39.848 25.47L35 17.7131V14.5017C35.6609 14.1325 36.2001 13.579 36.5522 12.9088C36.9042 12.2386 37.0538 11.4805 36.9827 10.7268C36.9117 9.97312 36.623 9.25634 36.1519 8.66373C35.6809 8.07112 35.0476 7.62825 34.3294 7.38904C34.1325 7.324 33.9505 7.22056 33.7938 7.08471C33.6372 6.94886 33.509 6.78329 33.4168 6.5976L33 5.76398V2H31V5.76398L30.5832 6.5976C30.4909 6.78329 30.3628 6.94886 30.2061 7.08471C30.0495 7.22056 29.8675 7.324 29.6706 7.38904C28.9523 7.62825 28.3191 8.07112 27.848 8.66373C27.3769 9.25634 27.0883 9.97312 27.0172 10.7268C26.9462 11.4805 27.0957 12.2386 27.4478 12.9088C27.7998 13.579 28.3391 14.1325 29 14.5017V17.7131L24.152 25.47C24.053 25.629 24.0008 25.8127 24.0014 26H24V30.0177C23.9109 29.8946 23.8271 29.7678 23.7484 29.6372L21.8575 26.4855C21.7686 26.3375 21.6429 26.2149 21.4927 26.1298C21.3424 26.0447 21.1727 26 21 26C20.8273 26 20.6575 26.0447 20.5073 26.1298C20.357 26.2149 20.2313 26.3375 20.1425 26.4855L18.2515 29.6371C17.6427 30.6474 16.7215 31.4319 15.6272 31.8721C14.6652 32.2549 13.824 32.8896 13.1919 33.7097L11.8575 31.4855C11.7686 31.3374 11.6429 31.2149 11.4927 31.1298C11.3424 31.0447 11.1727 31 11 31C10.8273 31 10.6575 31.0447 10.5073 31.1298C10.357 31.2149 10.2313 31.3374 10.1425 31.4855L8.2515 34.6371C7.64272 35.6474 6.72152 36.4319 5.62723 36.8721C4.61135 37.2782 3.7319 37.9649 3.0915 38.852C2.45111 39.7391 2.07616 40.7899 2.0104 41.882C1.94464 42.9741 2.19079 44.0624 2.72013 45.0199C3.24946 45.9774 4.04016 46.7647 4.99997 47.2898V50.6667L2.19998 54.4C2.07016 54.5731 1.99998 54.7836 1.99997 55V61C1.99997 61.1313 2.02583 61.2614 2.07608 61.3827C2.12634 61.504 2.2 61.6143 2.29286 61.7071C2.38572 61.8 2.49596 61.8736 2.61728 61.9239C2.73861 61.9741 2.86865 62 2.99997 62H61C61.1313 62 61.2613 61.9741 61.3827 61.9239C61.504 61.8736 61.6142 61.8 61.7071 61.7071C61.8 61.6143 61.8736 61.504 61.9239 61.3827C61.9741 61.2614 62 61.1313 62 61V46C62 45.7836 61.9298 45.5731 61.8 45.4L59 41.6667V38.2898C59.9076 37.7926 60.6648 37.0606 61.1926 36.1704C61.7204 35.2802 61.9992 34.2645 62 33.2297ZM48.37 29.729C49.8697 29.1258 51.1322 28.0506 51.9665 26.6661L53 24.9437L54.0335 26.6662C54.8678 28.0507 56.1303 29.1258 57.6299 29.729C58.4435 30.0544 59.1183 30.6531 59.5384 31.422C59.9585 32.191 60.0977 33.0822 59.932 33.9427C59.7663 34.8031 59.306 35.5789 58.6304 36.1369C57.9548 36.6948 57.1059 37 56.2297 37H49.7703C48.8941 37 48.0452 36.6948 47.3696 36.1369C46.6939 35.5789 46.2337 34.8031 46.068 33.9427C45.9023 33.0822 46.0415 32.191 46.4616 31.422C46.8817 30.6531 47.5565 30.0544 48.37 29.729ZM57.5 43L59 45H48.947C49.0381 44.3339 49.0116 43.657 48.8688 43H57.5ZM41 56V55C41 54.7348 41.1053 54.4804 41.2929 54.2929C41.4804 54.1054 41.7348 54 42 54C42.2652 54 42.5196 54.1054 42.7071 54.2929C42.8946 54.4804 43 54.7348 43 55V56H41ZM37 56V55C37 54.7348 37.1053 54.4804 37.2929 54.2929C37.4804 54.1054 37.7348 54 38 54C38.2652 54 38.5196 54.1054 38.7071 54.2929C38.8946 54.4804 39 54.7348 39 55V56H37ZM33 56V55C33 54.7348 33.1053 54.4804 33.2929 54.2929C33.4804 54.1054 33.7348 54 34 54C34.2652 54 34.5195 54.1054 34.7071 54.2929C34.8946 54.4804 35 54.7348 35 55V56H33ZM21 55.5858L18 52.5858V51H24V52.5858L21 55.5858ZM17.7703 43H24.2296C24.4873 42.9995 24.7447 42.9818 25 42.9471V45.7663C24.4507 45.2729 23.7383 45 23 45C22.2616 45 21.5493 45.2729 21 45.7663C20.4507 45.2729 19.7383 45 19 45C18.2616 45 17.5493 45.2729 17 45.7663V42.9471C17.2553 42.9818 17.5126 42.9995 17.7703 43ZM26 27H31V28.6667L28.2 32.4C28.0982 32.5367 28.033 32.6972 28.0108 32.8662C27.5236 32.4464 26.97 32.1104 26.3727 31.8721C26.2462 31.8215 26.122 31.7655 26 31.7055V27ZM31.0046 44H30V33.3333L32 30.6667L34 33.3333V39.1674C33.1237 39.6431 32.3866 40.339 31.8613 41.1864C31.3361 42.0339 31.0408 43.0036 31.0046 44ZM18 49V48C18 47.7348 18.1053 47.4804 18.2929 47.2929C18.4804 47.1054 18.7348 47 19 47C19.2652 47 19.5195 47.1054 19.7071 47.2929C19.8946 47.4804 20 47.7348 20 48V49H18ZM22 48C22 47.7348 22.1053 47.4804 22.2929 47.2929C22.4804 47.1054 22.7348 47 23 47C23.2652 47 23.5195 47.1054 23.7071 47.2929C23.8946 47.4804 24 47.7348 24 48V49H22V48ZM26 48C26 47.7348 26.1053 47.4804 26.2929 47.2929C26.4804 47.1054 26.7348 47 27 47C27.2652 47 27.5195 47.1054 27.7071 47.2929C27.8946 47.4804 28 47.7348 28 48V49H26V48ZM36 34H38V35.3897L37.2515 36.6371C36.922 37.1841 36.4983 37.6684 36 38.0677V34ZM38 32H35.4999L33 28.6667V27H38V32ZM28 44H27V42.2898C27.3569 42.0931 27.6921 41.8593 28 41.5923V44ZM16 48V49H14V48C14 47.7348 14.1053 47.4804 14.2929 47.2929C14.4804 47.1054 14.7348 47 15 47C15.2652 47 15.5195 47.1054 15.7071 47.2929C15.8946 47.4804 16 47.7348 16 48ZM14 51H16V52.5858L14 54.5858V51ZM26 51H28V54.5858L26 52.5858V51ZM30 48C30.0005 47.2615 29.7275 46.549 29.2337 46H31.2789C31.7346 47.4027 32.7076 48.5791 34 49.2898V52C33.2046 52.0009 32.4421 52.3172 31.8796 52.8797C31.3172 53.4421 31.0009 54.2046 31 55V60H30V48ZM42 52C41.2615 51.9995 40.549 52.2725 40 52.7663C39.4507 52.2729 38.7383 52 38 52C37.2616 52 36.5493 52.2729 36 52.7663V49.9471C36.2553 49.9818 36.5126 49.9995 36.7703 50H43.2297C43.4873 49.9995 43.7447 49.9818 44 49.9471V52.7663C43.4509 52.2725 42.7384 51.9995 42 52ZM45 55C45 54.7348 45.1053 54.4804 45.2929 54.2929C45.4804 54.1054 45.7348 54 46 54C46.2652 54 46.5196 54.1054 46.7071 54.2929C46.8946 54.4804 47 54.7348 47 55V56H45V55ZM54 60H50V56.4142L52 54.4142L54 56.4142V60ZM56 56.4142L58 54.4142L60 56.4142V60H56V56.4142ZM58.7071 52.2929C58.5195 52.1054 58.2652 52 58 52C57.7348 52 57.4804 52.1054 57.2929 52.2929L55 54.5858L52.7071 52.2929C52.5195 52.1054 52.2652 52 52 52C51.7348 52 51.4804 52.1054 51.2929 52.2929L48.974 54.6118C48.879 53.8899 48.5251 53.2272 47.978 52.7468C47.4309 52.2664 46.728 52.001 46 52V49.2898C46.9648 48.7589 47.7589 47.9648 48.2898 47H60V49H59V51H60V53.5858L58.7071 52.2929ZM41.0335 37.6662C41.8678 39.0507 43.1303 40.1258 44.6299 40.729C45.4435 41.0544 46.1183 41.6531 46.5384 42.422C46.9585 43.191 47.0977 44.0822 46.932 44.9427C46.7663 45.8031 46.306 46.5789 45.6304 47.1369C44.9548 47.6948 44.1059 48 43.2297 48H36.7703C35.8941 48 35.0452 47.6948 34.3696 47.1369C33.6939 46.5789 33.2337 45.8031 33.068 44.9427C32.9023 44.0822 33.0415 43.191 33.4616 42.422C33.8817 41.6531 34.5565 41.0544 35.37 40.729C36.8697 40.1258 38.1322 39.0506 38.9665 37.6661L39.9662 36H40V35.9437L41.0335 37.6662ZM33 25V19H33.4457L37.1957 25H33ZM33 17H31V15H33V17ZM30.303 9.28638C30.9758 9.06416 31.5667 8.64588 32 8.08527C32.4332 8.64588 33.0242 9.06416 33.6969 9.28638C34.1262 9.42948 34.4906 9.72067 34.7248 10.1078C34.959 10.495 35.0479 10.9529 34.9754 11.3996C34.9029 11.8462 34.6738 12.2525 34.3292 12.5457C33.9845 12.839 33.5468 13 33.0943 13H30.9057C30.4532 13 30.0154 12.839 29.6708 12.5457C29.3261 12.2525 29.0971 11.8462 29.0246 11.3996C28.9521 10.9529 29.0409 10.495 29.2751 10.1078C29.5094 9.72067 29.8737 9.42948 30.303 9.28638ZM30.5542 19H31V25H26.8042L30.5542 19ZM16.37 33.729C17.8697 33.1258 19.1322 32.0506 19.9665 30.6661L21 28.9437L22.0335 30.6662C22.8678 32.0507 24.1303 33.1258 25.6299 33.729C26.4435 34.0544 27.1183 34.6531 27.5384 35.422C27.9585 36.191 28.0977 37.0822 27.932 37.9427C27.7663 38.8031 27.306 39.5789 26.6304 40.1369C25.9548 40.6948 25.1059 41 24.2296 41H17.7703C16.8941 41 16.0452 40.6948 15.3696 40.1369C14.6939 39.5789 14.2337 38.8031 14.068 37.9427C13.9023 37.0822 14.0414 36.191 14.4616 35.422C14.8817 34.6531 15.5565 34.0544 16.37 33.729ZM6.37003 38.729C7.86971 38.1258 9.13217 37.0506 9.96646 35.6661L11 33.9437L12.0335 35.6661C12.0745 35.7345 12.1176 35.8018 12.1609 35.869C11.8635 37.1025 11.9804 38.3995 12.4935 39.56C13.0066 40.7204 13.8874 41.6797 15 42.2898V45C14.5782 44.9999 14.1612 45.0889 13.7762 45.2613C13.3913 45.4336 13.0471 45.6853 12.7663 46H7.7703C6.89406 46 6.04519 45.6948 5.36955 45.1369C4.69391 44.5789 4.2337 43.8031 4.06799 42.9427C3.90229 42.0822 4.04145 41.191 4.46155 40.422C4.88165 39.6531 5.55647 39.0544 6.37003 38.729ZM7.7703 48H12V50H6.99997V47.9471C7.25528 47.9818 7.51263 47.9995 7.7703 48ZM6.49997 52H12V55C11.4321 54.9999 10.8707 55.1211 10.3533 55.3553C9.83595 55.5896 9.37456 55.9316 8.99997 56.3585C8.39053 55.6638 7.55884 55.2023 6.64692 55.0526C5.73501 54.903 4.79943 55.0746 3.99997 55.5381V55.3333L6.49997 52ZM3.99997 59C3.99997 58.4696 4.21069 57.9609 4.58576 57.5858C4.96083 57.2107 5.46954 57 5.99997 57C6.53041 57 7.03911 57.2107 7.41419 57.5858C7.78926 57.9609 7.99997 58.4696 7.99997 59V60H3.99997V59ZM9.99997 59C10.0006 58.4698 10.2115 57.9614 10.5864 57.5865C10.9614 57.2115 11.4697 57.0006 12 57V60H9.99997V59ZM14 57.4142L17 54.4142L20 57.4142V60H14V57.4142ZM22 60V57.4142L25 54.4142L28 57.4142V60H22ZM47 60H33V58H47V60ZM57 41H49V38.9471C49.2553 38.9818 49.5126 38.9995 49.7703 39H56.2297C56.4873 38.9995 56.7447 38.9818 57 38.9471V41Z" fill="#FFB75E"/>
<path d="M53 49H51V51H53V49Z" fill="#FFB75E"/>
<path d="M57 49H55V51H57V49Z" fill="#FFB75E"/>
<path d="M49 49H47V51H49V49Z" fill="#FFB75E"/>
</svg>
