<svg width="64" height="64" viewBox="0 0 64 64" fill="none" xmlns="http://www.w3.org/2000/svg">
<path d="M3 59H14.6728C17.3949 60.9444 20.6548 61.9929 24 62H33.0001C33.4801 62.0002 33.9531 61.8851 34.3794 61.6645C34.8056 61.4439 35.1728 61.1242 35.4498 60.7323C35.7269 60.3404 35.9059 59.8877 35.9717 59.4122C36.0375 58.9368 35.9882 58.4524 35.828 58H57C57.1313 58 57.2614 57.9741 57.3827 57.9239C57.504 57.8736 57.6143 57.8 57.7071 57.7071C57.8 57.6143 57.8736 57.504 57.9239 57.3827C57.9741 57.2614 58 57.1313 58 57V38H61C61.181 38 61.3586 37.9509 61.5139 37.8579C61.6691 37.7648 61.7963 37.6314 61.8817 37.4719C61.9671 37.3123 62.0076 37.1325 61.9988 36.9517C61.9901 36.7709 61.9324 36.5959 61.832 36.4453L57.832 30.4453C57.7407 30.3083 57.617 30.196 57.4719 30.1183C57.3267 30.0406 57.1646 30 57 30H53.0711L52.1102 29.0391C51.9441 28.873 51.8315 28.661 51.7868 28.4304C51.7422 28.1998 51.7675 27.9611 51.8596 27.7449L51.8673 27.7263C51.9559 27.5109 52.1067 27.3268 52.3004 27.1974C52.4941 27.0681 52.7219 26.9993 52.9548 27H57C57.1313 27 57.2614 26.9741 57.3827 26.9239C57.504 26.8736 57.6143 26.8 57.7071 26.7071C57.8 26.6143 57.8736 26.504 57.9239 26.3827C57.9741 26.2614 58 26.1313 58 26V18C58 17.8687 57.9741 17.7386 57.9239 17.6173C57.8736 17.496 57.8 17.3857 57.7071 17.2929C57.6143 17.2 57.504 17.1264 57.3827 17.0761C57.2614 17.0259 57.1313 17 57 17H52.9548C52.7222 17.0007 52.4945 16.9322 52.301 16.8031C52.1074 16.674 51.9566 16.4902 51.8679 16.2751L51.8554 16.2452C51.7655 16.03 51.7418 15.7929 51.7871 15.5642C51.8325 15.3355 51.945 15.1254 52.1102 14.9609L54.9705 12.1005C55.0634 12.0076 55.1371 11.8974 55.1873 11.7761C55.2376 11.6547 55.2635 11.5247 55.2635 11.3934C55.2635 11.262 55.2376 11.132 55.1873 11.0107C55.1371 10.8894 55.0634 10.7791 54.9705 10.6863L49.3137 5.02948C49.2209 4.93662 49.1106 4.86296 48.9893 4.8127C48.868 4.76245 48.738 4.73658 48.6066 4.73658C48.4753 4.73658 48.3453 4.76245 48.224 4.8127C48.1026 4.86296 47.9924 4.93662 47.8995 5.02948L45.0391 7.88983C44.8744 8.05516 44.6641 8.16765 44.4352 8.21294C44.2062 8.25823 43.9689 8.23427 43.7537 8.1441L43.7263 8.13275C43.5109 8.04413 43.3268 7.89335 43.1974 7.69965C43.0681 7.50594 42.9993 7.27809 43 7.04517V3C43 2.86868 42.9741 2.73864 42.9239 2.61731C42.8736 2.49598 42.8 2.38574 42.7071 2.29288C42.6143 2.20003 42.504 2.12637 42.3827 2.07611C42.2614 2.02586 42.1313 2 42 2H34C33.8687 2 33.7386 2.02586 33.6173 2.07611C33.496 2.12637 33.3857 2.20003 33.2929 2.29288C33.2 2.38574 33.1264 2.49598 33.0761 2.61731C33.0259 2.73864 33 2.86868 33 3V7.04517C33.0006 7.27822 32.9318 7.50618 32.8023 7.69995C32.6728 7.89372 32.4885 8.0445 32.273 8.13306L32.2452 8.14459C32.03 8.23445 31.793 8.25821 31.5642 8.21284C31.3355 8.16747 31.1255 8.05502 30.9609 7.88983L28.1005 5.02948C27.9129 4.84195 27.6586 4.7366 27.3934 4.7366C27.1282 4.7366 26.8738 4.84195 26.6863 5.02948L21.0295 10.6863C20.9366 10.7791 20.8629 10.8894 20.8127 11.0107C20.7624 11.132 20.7366 11.262 20.7366 11.3934C20.7366 11.5247 20.7624 11.6547 20.8127 11.7761C20.8629 11.8974 20.9366 12.0076 21.0295 12.1005L23.8898 14.9609C24.0559 15.127 24.1685 15.339 24.2132 15.5696C24.2578 15.8002 24.2325 16.039 24.1404 16.2551L24.1328 16.2737C24.0441 16.4891 23.8934 16.6732 23.6997 16.8026C23.5059 16.9319 23.2781 17.0007 23.0452 17H19C18.8687 17 18.7386 17.0259 18.6173 17.0761C18.496 17.1264 18.3857 17.2 18.2929 17.2929C18.2 17.3857 18.1264 17.496 18.0761 17.6173C18.0259 17.7386 18 17.8687 18 18V26C18 26.1313 18.0259 26.2614 18.0761 26.3827C18.1264 26.504 18.2 26.6143 18.2929 26.7071C18.3857 26.8 18.496 26.8736 18.6173 26.9239C18.7386 26.9741 18.8687 27 19 27H23.0452C23.2778 26.9993 23.5055 27.0678 23.6991 27.1969C23.8926 27.326 24.0434 27.5098 24.1321 27.7249L24.1446 27.7548C24.2345 27.97 24.2582 28.2071 24.2129 28.4358C24.1675 28.6645 24.055 28.8746 23.8898 29.0391L22.929 30H17C16.8354 30 16.6733 30.0406 16.5281 30.1183C16.383 30.196 16.2593 30.3083 16.168 30.4453L12.168 36.4453C12.0676 36.5959 12.0099 36.7709 12.0012 36.9517C11.9925 37.1325 12.0329 37.3123 12.1184 37.4719C12.2038 37.6314 12.3309 37.7648 12.4861 37.8579C12.6414 37.9509 12.819 38 13 38H16V49.0056C15.9189 49.0039 15.8381 49 15.7567 49H13.0991L3.19611 47.0194C3.05103 46.9904 2.90132 46.994 2.75778 47.0298C2.61424 47.0656 2.48044 47.1329 2.36603 47.2267C2.25161 47.3205 2.15944 47.4385 2.09614 47.5722C2.03285 47.7059 2.00001 47.8521 2 48V58C2 58.1313 2.02586 58.2614 2.07611 58.3827C2.12637 58.504 2.20003 58.6143 2.29288 58.7071C2.38574 58.8 2.49598 58.8736 2.61731 58.9239C2.73864 58.9741 2.86868 59 3 59ZM56 56H40V34.3027L42.168 37.5547C42.2593 37.6917 42.383 37.804 42.5281 37.8817C42.6733 37.9594 42.8354 38 43 38H56V56ZM59.1315 36H43.5352L40.8685 32H56.4649L59.1315 36ZM25.9921 26.989C25.9918 26.9882 25.9869 26.9765 25.9866 26.9758L25.9814 26.9631C25.7424 26.3812 25.3354 25.8837 24.8125 25.5341C24.2895 25.1844 23.6742 24.9985 23.0452 25H20V19H23.0452C23.6742 19.0015 24.2895 18.8156 24.8125 18.4659C25.3354 18.1163 25.7424 17.6188 25.9814 17.0369L25.9866 17.0242L25.9917 17.0121C26.2342 16.4315 26.2983 15.7918 26.1758 15.1746C26.0534 14.5575 25.7499 13.9907 25.304 13.5467L23.1508 11.3934L27.3934 7.15076L29.5467 9.30402C29.9906 9.74972 30.5571 10.0532 31.174 10.1757C31.791 10.2983 32.4305 10.2344 33.011 9.99212L33.0369 9.98138C33.6188 9.74238 34.1163 9.33544 34.4659 8.81248C34.8156 8.28952 35.0015 7.67425 35 7.04517V4H41V7.04517C40.9984 7.67412 41.1843 8.28928 41.5338 8.81218C41.8833 9.33508 42.3807 9.74201 42.9624 9.98108L42.9879 9.9917C43.5685 10.2342 44.2082 10.2982 44.8253 10.1758C45.4425 10.0533 46.0093 9.74981 46.4533 9.30402L48.6066 7.15076L52.8493 11.3934L50.696 13.5467C50.2503 13.9905 49.9468 14.557 49.8242 15.174C49.7017 15.791 49.7656 16.4305 50.0079 17.011C50.0082 17.0118 50.0131 17.0235 50.0134 17.0242L50.0186 17.0369C50.2576 17.6188 50.6646 18.1163 51.1875 18.4659C51.7105 18.8156 52.3258 19.0015 52.9548 19H56V25H52.9548C52.3258 24.9985 51.7105 25.1844 51.1875 25.5341C50.6646 25.8837 50.2576 26.3812 50.0186 26.9631L50.0134 26.9758L50.0083 26.9879C49.8046 27.4761 49.7266 28.0076 49.7813 28.5338C49.8361 29.06 50.0219 29.5641 50.3217 30H45.5497C46.613 28.9965 47.4657 27.7911 48.0578 26.4543C48.6498 25.1174 48.9694 23.676 48.9979 22.2142C49.0264 20.7523 48.7632 19.2995 48.2236 17.9406C47.6841 16.5817 46.879 15.3441 45.8555 14.2999L44.4273 15.7001C45.4136 16.7064 46.1498 17.9302 46.5768 19.2729C47.0038 20.6157 47.1095 22.04 46.8856 23.4311C46.6616 24.8222 46.1142 26.1413 45.2874 27.2822C44.4606 28.4232 43.3775 29.3541 42.1253 30H33.8788C32.8223 29.4538 31.8839 28.7046 31.1174 27.7952C30.3509 26.8858 29.7713 25.8341 29.4119 24.7004L27.5038 25.2996C28.07 27.0923 29.0853 28.7103 30.4532 30H25.6783C25.9781 29.5643 26.1639 29.0605 26.2187 28.5345C26.2735 28.0085 26.1956 27.4771 25.9921 26.989ZM17.5352 32H37.1315L34.4648 36H14.8685L17.5352 32ZM18 38H35C35.1646 38 35.3267 37.9594 35.4719 37.8817C35.617 37.804 35.7407 37.6917 35.832 37.5547L38 34.3027V56L29.8279 56.0002C29.988 55.5477 30.0372 55.0634 29.9714 54.588C29.9055 54.1126 29.7265 53.6599 29.4495 53.268C29.1724 52.8761 28.8054 52.5564 28.3791 52.3358C27.9529 52.1151 27.48 52 27 52L23.4034 52.0007C21.894 50.5931 20.0234 49.6321 18 49.2249V38ZM22.293 53.7078C22.3859 53.8007 22.4961 53.8744 22.6175 53.9247C22.7388 53.9749 22.8689 54.0008 23.0002 54.0008L26.9999 54C27.1312 54 27.2612 54.0258 27.3826 54.076C27.5039 54.1263 27.6142 54.1999 27.707 54.2927C27.7999 54.3856 27.8736 54.4958 27.9239 54.6171C27.9742 54.7384 28.0001 54.8685 28.0001 54.9998C28.0001 55.1311 27.9743 55.2611 27.9241 55.3825C27.8738 55.5038 27.8002 55.6141 27.7073 55.707C27.6145 55.7998 27.5043 55.8735 27.383 55.9238C27.2617 55.9741 27.1316 56 27.0003 56H23V58L32.9999 58.0001C33.1314 57.9999 33.2615 58.0257 33.383 58.0758C33.5044 58.126 33.6148 58.1996 33.7078 58.2925C33.8007 58.3854 33.8745 58.4957 33.9248 58.617C33.9752 58.7384 34.0011 58.8686 34.0011 59C34.0011 59.1314 33.9752 59.2615 33.9249 59.3829C33.8746 59.5043 33.8008 59.6146 33.7079 59.7075C33.6149 59.8003 33.5045 59.874 33.3831 59.9242C33.2616 59.9744 33.1315 60.0001 33.0001 60H24C20.9718 59.9937 18.0263 59.0119 15.6 57.2C15.4269 57.0702 15.2164 57 15 57H14V51H15.7567C16.9711 50.9967 18.1741 51.2343 19.2961 51.6991C20.4181 52.1639 21.4367 52.8467 22.293 53.7078ZM4 49.2198L12 50.8198V57H4V49.2198Z" fill="#FFB75E"/>
<path d="M38 28C39.1867 28 40.3467 27.6481 41.3334 26.9888C42.3201 26.3295 43.0891 25.3925 43.5433 24.2961C43.9974 23.1997 44.1162 21.9933 43.8847 20.8295C43.6532 19.6656 43.0818 18.5965 42.2426 17.7574C41.4035 16.9182 40.3344 16.3468 39.1705 16.1153C38.0067 15.8838 36.8003 16.0026 35.7039 16.4567C34.6075 16.9108 33.6705 17.6799 33.0112 18.6666C32.3519 19.6533 32 20.8133 32 22C32.0018 23.5907 32.6345 25.1158 33.7593 26.2407C34.8842 27.3655 36.4092 27.9982 38 28ZM38 18C38.7911 18 39.5645 18.2346 40.2223 18.6741C40.8801 19.1136 41.3928 19.7384 41.6955 20.4693C41.9983 21.2002 42.0775 22.0044 41.9231 22.7804C41.7688 23.5563 41.3878 24.269 40.8284 24.8284C40.269 25.3878 39.5563 25.7688 38.7804 25.9231C38.0044 26.0775 37.2002 25.9983 36.4693 25.6955C35.7384 25.3928 35.1136 24.8801 34.6741 24.2223C34.2346 23.5645 34 22.7911 34 22C34.0012 20.9395 34.423 19.9228 35.1729 19.1729C35.9228 18.423 36.9395 18.0012 38 18Z" fill="#FFB75E"/>
<path d="M32 42H30V44H32V42Z" fill="#FFB75E"/>
<path d="M28 42H24V44H28V42Z" fill="#FFB75E"/>
<path d="M34 46H27V48H34V46Z" fill="#FFB75E"/>
<path d="M25 46H22V48H25V46Z" fill="#FFB75E"/>
</svg>
