<svg width="30" height="30" viewBox="0 0 30 30" fill="none" xmlns="http://www.w3.org/2000/svg">
<g clip-path="url(#clip0)">
<path d="M9.84236 20.5349C11.0779 22.2769 12.3114 23.8349 13.1289 24.8384C13.2479 24.9844 13.3594 25.1199 13.4674 25.2504H11.0004C10.7243 25.2504 10.5004 25.4742 10.5004 25.7503C10.5004 26.0265 10.7243 26.2503 11.0004 26.2503H19.0004C19.2765 26.2503 19.5003 26.0265 19.5003 25.7503C19.5003 25.4742 19.2765 25.2504 19.0004 25.2504H16.5334C16.6414 25.1199 16.7529 24.9843 16.8724 24.8384C17.6894 23.8384 18.9224 22.2769 20.1584 20.5349C21.3847 18.8412 22.4885 17.0622 23.4614 15.2114C24.4824 13.2064 25.0004 11.5419 25.0004 10.2639C25.0038 7.60835 23.9501 5.06068 22.0719 3.18333C21.9465 3.05325 21.7606 3.00099 21.5858 3.04663C21.4109 3.09228 21.2743 3.22868 21.2284 3.40347C21.1825 3.57826 21.2345 3.76418 21.3644 3.8898C23.055 5.57989 24.0034 7.87331 24.0004 10.2638C24.0004 11.3829 23.5194 12.8948 22.5704 14.7573C21.6195 16.5653 20.5407 18.303 19.3424 19.9574C18.1234 21.6769 16.9049 23.2174 16.0974 24.2074C15.829 24.5364 15.5874 24.8274 15.3814 25.0734C15.2853 25.1832 15.1464 25.2461 15.0004 25.2461C14.8545 25.2461 14.7156 25.1831 14.6195 25.0734C14.4135 24.8274 14.172 24.5364 13.9035 24.2074C13.096 23.2179 11.8774 21.6774 10.6585 19.9574C9.46015 18.303 8.38138 16.5653 7.43046 14.7573C6.48047 12.8948 6.00047 11.3829 6.00047 10.2638C6.00018 6.64219 8.16605 3.3716 11.5005 1.95831C13.741 1.01881 16.265 1.01881 18.5055 1.95831C18.6701 2.02804 18.8593 2.00477 19.0019 1.89714C19.1446 1.78956 19.219 1.61401 19.1972 1.43665C19.1753 1.25928 19.0605 1.10706 18.896 1.03733C13.8043 -1.11026 7.93565 1.27534 5.78649 6.36633C5.26529 7.5995 4.99799 8.92507 5.00051 10.2638C5.00051 11.5418 5.51854 13.2064 6.53954 15.2139C7.51231 17.0638 8.61616 18.842 9.84236 20.5349Z" fill="#FFB75E"/>
<path d="M15.0004 5.74997C15.2766 5.74997 15.5004 5.52614 15.5004 5.24998C15.5004 4.97383 15.2766 4.75 15.0004 4.75C12.6151 4.74994 10.5618 6.43499 10.0964 8.77453C9.63099 11.1141 10.8831 13.4565 13.0869 14.3694C15.2906 15.2823 17.8324 14.5113 19.1577 12.5279C20.4829 10.5446 20.2226 7.90124 18.5359 6.2145C18.4104 6.08454 18.2245 6.03239 18.0497 6.07815C17.8749 6.12391 17.7383 6.26044 17.6926 6.43522C17.6468 6.61007 17.699 6.79593 17.8289 6.92149C19.1784 8.27085 19.3867 10.3855 18.3265 11.9722C17.2664 13.5589 15.233 14.1758 13.47 13.4456C11.7069 12.7154 10.7052 10.8414 11.0774 8.96976C11.4496 7.0981 13.0921 5.75002 15.0004 5.74997Z" fill="#FFB75E"/>
<path d="M29.8119 27.5366L26.7369 22.0365C26.4588 21.5478 25.9386 21.2475 25.3764 21.251H21.8129C21.5367 21.251 21.3129 21.4748 21.3129 21.751C21.3129 22.0271 21.5367 22.251 21.8129 22.251H25.3764C25.5765 22.2471 25.7633 22.3515 25.8649 22.524L28.9389 28.024C29.0226 28.1671 29.0209 28.3446 28.9344 28.486C28.8322 28.6548 28.6476 28.7558 28.4504 28.751H1.55032C1.35333 28.7557 1.16888 28.6546 1.0668 28.486C0.98032 28.3446 0.978621 28.1671 1.06229 28.024L4.13631 22.524C4.23773 22.3515 4.42429 22.2472 4.62428 22.251H8.18778C8.46394 22.251 8.68777 22.0271 8.68777 21.751C8.68777 21.4748 8.46394 21.251 8.18778 21.251H4.62433C4.06183 21.2473 3.54117 21.5477 3.26285 22.0365L0.188306 27.5366C-0.0680427 27.9894 -0.0621247 28.5448 0.203833 28.9921C0.484029 29.4683 0.997839 29.758 1.55032 29.7511H28.4504C29.0027 29.7578 29.5163 29.4682 29.7964 28.9921C30.0624 28.5448 30.0683 27.9894 29.8119 27.5366Z" fill="#FFB75E"/>
<path d="M24.5005 23.75H22.5005C22.4018 23.7502 22.3053 23.7794 22.223 23.834L20.723 24.8341C20.4932 24.9873 20.4312 25.2978 20.5845 25.5276C20.7377 25.7573 21.0482 25.8193 21.278 25.6661L22.6505 24.7501H24.5005C24.7766 24.7501 25.0005 24.5262 25.0005 24.2501C25.0005 23.9738 24.7766 23.75 24.5005 23.75Z" fill="#FFB75E"/>
<path d="M21.5003 27.251C21.5003 27.5271 21.7241 27.7509 22.0003 27.7509H26.0003C26.2765 27.7509 26.5003 27.5271 26.5003 27.251C26.5003 26.9748 26.2765 26.751 26.0003 26.751H22.0003C21.7241 26.751 21.5003 26.9748 21.5003 27.251Z" fill="#FFB75E"/>
<path d="M9.00028 25.751C9.22071 25.7513 9.4153 25.6072 9.47935 25.3962C9.54339 25.1853 9.46171 24.9573 9.27831 24.835L7.77831 23.835C7.69592 23.7803 7.59918 23.751 7.50028 23.751H5.50029C5.22413 23.751 5.00031 23.9749 5.00031 24.251C5.00031 24.5271 5.22419 24.7509 5.50029 24.7509H7.35028L8.72431 25.6669C8.80604 25.7216 8.90208 25.7508 9.00028 25.751Z" fill="#FFB75E"/>
<path d="M4.00041 26.751C3.72426 26.751 3.50043 26.9748 3.50043 27.251C3.50043 27.5271 3.72426 27.7509 4.00041 27.7509H8.00045C8.2766 27.7509 8.50043 27.5271 8.50043 27.251C8.50043 26.9748 8.2766 26.751 8.00045 26.751H4.00041Z" fill="#FFB75E"/>
</g>
<defs>
<clipPath id="clip0">
<rect width="30" height="30" fill="white"/>
</clipPath>
</defs>
</svg>
