<svg width="30" height="30" viewBox="0 0 30 30" fill="none" xmlns="http://www.w3.org/2000/svg">
<g clip-path="url(#clip0)">
<path d="M29.994 11.4696C29.9909 11.4351 29.9841 11.4011 29.9735 11.3681C29.9667 11.3386 29.9571 11.3098 29.945 11.282C29.931 11.2549 29.9143 11.2293 29.8951 11.2055C29.8758 11.1773 29.8535 11.1514 29.8285 11.128C29.8205 11.121 29.8171 11.1115 29.8086 11.1045L24.9998 7.36984V3.49917C24.9998 2.67073 24.3282 1.9991 23.4998 1.9991H18.081L15.9113 0.314498C15.3753 -0.103531 14.6237 -0.103531 14.0877 0.314498L11.9176 1.9991H6.49879C5.67035 1.9991 4.99871 2.67067 4.99871 3.49917V7.3699L0.191497 11.1046C0.183 11.1116 0.179484 11.1211 0.171515 11.1281C0.146611 11.1514 0.124286 11.1774 0.105008 11.2056C0.085788 11.2293 0.0690294 11.2549 0.0550248 11.2821C0.0428952 11.3098 0.0334026 11.3387 0.0265468 11.3681C0.0161165 11.4006 0.00926072 11.4342 0.0060379 11.4682C0.0060379 11.4786 6.10352e-05 11.4877 6.10352e-05 11.4982V28.5004C0.000764196 28.8185 0.10366 29.1279 0.293572 29.3829C0.29656 29.3874 0.297088 29.3929 0.300545 29.3969C0.304061 29.4009 0.311561 29.4054 0.316542 29.4109C0.597455 29.7806 1.03435 29.9985 1.49861 30.0005H28.5C28.9661 29.9991 29.4048 29.7801 29.686 29.4085C29.69 29.4035 29.6961 29.402 29.6995 29.397C29.703 29.392 29.7035 29.3875 29.7066 29.383C29.8965 29.1279 29.9994 28.8185 30.0001 28.5005V11.4996C30 11.4891 29.9946 11.48 29.994 11.4696ZM14.6992 1.1035C14.8738 0.964746 15.1211 0.964746 15.2957 1.1035L16.4493 1.99904H13.5491L14.6992 1.1035ZM1.6246 29.0005L14.6993 18.8444C14.874 18.7059 15.1211 18.7059 15.2958 18.8444L28.3739 29.0005H1.6246ZM29 28.2209L15.9113 18.0554C15.3752 17.6377 14.6238 17.6377 14.0877 18.0554L0.998549 28.2209V12.2611L9.19248 18.6239C9.41081 18.7932 9.72501 18.7535 9.89429 18.5352C10.0636 18.3168 10.0239 18.0026 9.80552 17.8333L1.48109 11.3695L4.99877 8.63588V12.4996C4.99877 12.7757 5.22267 12.9996 5.49878 12.9996C5.77494 12.9996 5.99878 12.7757 5.99878 12.4996V3.49911C5.99878 3.22295 6.22262 2.99911 6.49879 2.99911H23.4996C23.7758 2.99911 23.9996 3.22295 23.9996 3.49911V12.4996C23.9996 12.7757 24.2235 12.9996 24.4996 12.9996C24.7758 12.9996 24.9997 12.7757 24.9997 12.4996V8.63588L28.5173 11.3695L20.1784 17.8449C20.035 17.9536 19.961 18.131 19.9848 18.3094C20.0086 18.4879 20.1264 18.6397 20.2933 18.7071C20.4603 18.7744 20.6505 18.7469 20.7915 18.6349L28.9999 12.2611V28.2209H29Z" fill="#FFB75E"/>
<path d="M20.9996 11.9994V9.99933C20.9996 6.68545 18.3131 3.99902 14.9993 3.99902C11.6854 3.99902 8.99896 6.68545 8.99896 9.99933C8.99896 13.3132 11.6854 15.9996 14.9993 15.9996C15.2754 15.9996 15.4993 15.7758 15.4993 15.4996C15.4993 15.2235 15.2754 14.9996 14.9993 14.9996C12.2377 14.9996 9.99903 12.7609 9.99903 9.99939C9.99903 7.23784 12.2377 4.99915 14.9993 4.99915C17.7608 4.99915 19.9995 7.23784 19.9995 9.99939V11.9995C19.9995 12.5518 19.5517 12.9995 18.9994 12.9995C18.4471 12.9995 17.9993 12.5518 17.9993 11.9995V9.99939C17.9993 9.72322 17.7755 9.49938 17.4993 9.49938C17.2232 9.49938 16.9993 9.72322 16.9993 9.99939C16.9993 11.104 16.1039 11.9995 14.9993 11.9995C13.8947 11.9995 12.9992 11.104 12.9992 9.99939C12.9992 8.89478 13.8947 7.9993 14.9993 7.9993C15.2754 7.9993 15.4993 7.77547 15.4993 7.4993C15.4993 7.22313 15.2754 6.99929 14.9993 6.99929C13.6565 6.9963 12.4753 7.88586 12.1073 9.17722C11.7393 10.4686 12.2741 11.8472 13.4167 12.5524C14.5594 13.2577 16.0314 13.1179 17.0208 12.2101C17.1297 13.2675 18.0488 14.0538 19.1103 13.9976C20.1719 13.9413 21.0029 13.0625 20.9996 11.9994Z" fill="#FFB75E"/>
</g>
<defs>
<clipPath id="clip0">
<rect width="30" height="30" fill="white"/>
</clipPath>
</defs>
</svg>
