<svg width="30" height="30" viewBox="0 0 30 30" fill="none" xmlns="http://www.w3.org/2000/svg">
<g clip-path="url(#clip0)">
<path d="M0.668004 9.3934C0.846644 10.0516 1.4469 10.5064 2.12888 10.5003C2.2272 10.5004 2.32534 10.491 2.42189 10.4723L5.45169 9.89135L7.78251 9.37986C8.54969 9.24194 9.07735 8.53125 8.98741 7.75698L8.70296 5.57563C8.66745 5.30412 9.28991 5.00314 9.87036 4.91567C13.2352 4.37125 16.665 4.36235 20.0327 4.88919C20.9581 5.04867 21.1626 5.19719 21.2066 5.25268C21.2995 5.48229 21.3131 5.7364 21.2451 5.97462L21.041 7.42455C20.9263 7.89332 21.0078 8.38858 21.2666 8.79596C21.6289 9.17884 22.1185 9.41648 22.6435 9.46441C22.9934 9.53138 23.2629 9.59887 23.5324 9.66438C23.8184 9.73539 24.1039 9.80634 24.4758 9.87735L27.1861 10.4003C27.6575 10.5393 28.1625 10.5099 28.6145 10.3173C29.0904 10.0107 29.3985 9.50208 29.45 8.93839L29.4665 8.86591C29.519 8.63495 29.5885 8.40593 29.658 8.17696C29.8558 7.62768 29.9625 7.04975 29.9739 6.46607C29.8933 5.43747 29.4191 4.47959 28.6501 3.79174C25.1883 0.393998 19.2007 0.000976562 15.001 0.000976562C5.4132 0.00103515 1.75994 2.76085 0.383492 5.07621C0.00546983 5.71671 -0.0983514 6.48254 0.0955225 7.20056L0.668004 9.3934ZM1.24248 5.58816C2.4864 3.49481 5.88315 1.00099 15.0011 1.00099C19.0273 1.00099 24.7504 1.36448 27.9502 4.50525C28.5319 5.01351 28.8974 5.7248 28.9721 6.49361C28.9547 6.96977 28.8622 7.44019 28.6982 7.88752C28.6226 8.13752 28.5482 8.38999 28.4892 8.64345L28.4716 8.71944C28.3882 9.09143 28.3217 9.3419 28.1502 9.43137C27.8955 9.50074 27.6263 9.49587 27.3742 9.41736L24.6659 8.90042C24.3159 8.83346 24.0454 8.76596 23.776 8.70046C23.49 8.62945 23.2045 8.55849 22.8335 8.48748C22.5941 8.44149 22.1926 8.36497 22.0651 8.19653C21.9848 7.99662 21.9735 7.77562 22.0331 7.56856L22.2376 6.11864C22.3569 5.63105 22.2816 5.11616 22.0276 4.68324C21.7046 4.22325 20.9601 4.03928 20.2047 3.9088C16.7312 3.36374 13.1934 3.37148 9.72236 3.93183C8.62843 4.09781 7.58301 4.71178 7.71302 5.71021L7.998 7.89104C8.01863 8.14555 7.83659 8.37177 7.58354 8.40598L5.25172 8.91244L2.23393 9.49042C1.97309 9.54931 1.71114 9.3965 1.63398 9.14047L1.06349 6.95061C0.9374 6.49086 1.00191 5.9997 1.24248 5.58816Z" fill="#FFB75E"/>
<path d="M29.9101 22.8245C29.9051 22.8115 29.9001 22.799 29.8946 22.7875C29.8479 22.6633 29.7852 22.5456 29.7081 22.4376L23.353 13.8132C22.9751 13.3026 22.3779 13.0009 21.7426 12.9997H20.4427L20.0007 9.46345C19.9811 8.92548 19.5391 8.49965 19.0008 8.5H17.5009C16.9486 8.5 16.5009 8.94769 16.5009 9.49995V13.4997C16.5009 13.7758 16.7247 13.9997 17.0009 13.9997C17.277 13.9997 17.5008 13.7758 17.5008 13.4997V9.49995H19.0007C19.0005 9.52069 19.0019 9.54144 19.0047 9.56194L19.5046 13.5617C19.5359 13.8119 19.7485 13.9996 20.0006 13.9997H21.7425C22.06 14.0002 22.3586 14.1509 22.5475 14.4062L28.5106 22.4991H24.5003C24.2242 22.4991 24.0004 22.723 24.0004 22.9991C24.0004 23.2752 24.2242 23.499 24.5003 23.499H29V27.4988C29 28.3271 28.3285 28.9987 27.5001 28.9987H2.50193C1.67359 28.9987 1.00203 28.3272 1.00203 27.4988V23.499H22.0006C22.2768 23.499 22.5006 23.2751 22.5006 22.9991C22.5006 22.7229 22.2768 22.4991 22.0006 22.4991H1.49149L7.45459 14.4062C7.64348 14.1509 7.942 14.0002 8.25955 13.9997H10.0014C10.2535 13.9996 10.4662 13.8118 10.4974 13.5617L10.9973 9.56194C11.0002 9.54138 11.0015 9.52069 11.0013 9.49995H12.5012V13.4997C12.5012 13.7758 12.725 13.9997 13.0012 13.9997H15.001C15.2772 13.9997 15.501 13.7758 15.501 13.4997C15.501 13.2236 15.2772 12.9998 15.001 12.9998H13.5011V9.50001C13.5011 8.94774 13.0534 8.50006 12.5012 8.50006H11.0013C10.4629 8.49971 10.021 8.92554 10.0013 9.46351L9.55984 12.9998H8.25991C7.62538 13.0015 7.02899 13.3031 6.6515 13.8132L0.294087 22.4381C0.216573 22.5459 0.153882 22.6636 0.107596 22.788C0.102088 22.799 0.0971079 22.8115 0.0920692 22.824C0.0335379 22.9855 0.00312981 23.1557 0.0020752 23.3275V27.4987C0.00371571 28.8786 1.12196 29.9969 2.50193 29.9986H27.5003C28.8802 29.9969 29.9984 28.8787 30.0001 27.4987V23.3275C29.9991 23.156 29.9687 22.9858 29.9101 22.8245Z" fill="#FFB75E"/>
<path d="M11.7062 16.744C12.1667 16.4983 12.6586 16.3164 13.1681 16.2035C14.3752 15.9341 15.6268 15.9341 16.8338 16.2035C17.0082 16.2449 17.1913 16.1899 17.3139 16.0592C17.4366 15.9286 17.4799 15.7423 17.4275 15.5709C17.3751 15.3996 17.235 15.2694 17.0603 15.2296C15.7042 14.9261 14.2977 14.9261 12.9416 15.2296C12.3429 15.3632 11.7653 15.5778 11.2247 15.8676C10.7508 16.1156 10.3331 16.4587 9.99776 16.8755C9.33493 17.6722 9.33493 18.8285 9.99776 19.6253C10.3331 20.042 10.7508 20.3852 11.2247 20.6332C11.7654 20.9229 12.3429 21.1375 12.9416 21.2712C14.2975 21.5765 15.7044 21.5765 17.0603 21.2712C17.6589 21.1376 18.2365 20.9229 18.7772 20.6332C19.2511 20.3851 19.6688 20.042 20.0041 19.6253C20.6669 18.8285 20.6669 17.6722 20.0041 16.8755C19.8968 16.7295 19.7188 16.6531 19.5391 16.6757C19.3593 16.6982 19.2059 16.8163 19.1379 16.9842C19.0699 17.1521 19.0982 17.3437 19.2116 17.4849C19.5968 17.9225 19.5968 18.5782 19.2116 19.0158C18.9593 19.322 18.6477 19.574 18.2957 19.7568C17.8352 20.0025 17.3433 20.1844 16.8338 20.2973C15.6267 20.5667 14.3751 20.5667 13.1681 20.2973C12.6586 20.1845 12.1669 20.0026 11.7067 19.7568C11.3544 19.5741 11.0426 19.3221 10.7902 19.0158C10.405 18.5782 10.405 17.9225 10.7902 17.4849C11.0426 17.1788 11.3541 16.9268 11.7062 16.744Z" fill="#FFB75E"/>
</g>
<defs>
<clipPath id="clip0">
<rect width="30" height="30" fill="white"/>
</clipPath>
</defs>
</svg>
