<svg width="30" height="30" viewBox="0 0 30 30" fill="none" xmlns="http://www.w3.org/2000/svg">
<path d="M15 0C6.71562 0 0 6.71562 0 15C0 23.2844 6.71562 30 15 30C23.2844 30 30 23.2844 30 15C29.9906 6.71951 23.2805 0.00938414 15 0ZM15 29C7.26791 29 0.999985 22.7321 0.999985 15C0.999985 7.26791 7.26791 0.999985 15 0.999985C22.7321 0.999985 29 7.26791 29 15C28.9911 22.7284 22.7284 28.9911 15 29Z" fill="#FFB75E"/>
<path d="M26.2381 8.47701C25.0997 6.52465 23.4755 4.90051 21.5236 3.76182C21.5145 3.75632 21.5094 3.74694 21.5001 3.74145C21.4904 3.73595 21.4801 3.73641 21.4701 3.73138C17.4656 1.42287 12.5345 1.42287 8.53001 3.73138C8.51994 3.73641 8.50964 3.73595 8.50002 3.74145C8.49064 3.74694 8.4856 3.75632 8.47645 3.76182C6.52454 4.90028 4.9004 6.52442 3.76194 8.47633C3.75645 8.48548 3.74706 8.49052 3.74157 8.4999C3.73608 8.50951 3.73653 8.51981 3.7315 8.52988C1.423 12.5344 1.423 17.4654 3.7315 21.4699C3.73653 21.48 3.73608 21.4903 3.74157 21.4999C3.74706 21.5093 3.76057 21.5235 3.76949 21.5359C4.90795 23.4816 6.52912 25.1005 8.47645 26.236C8.4856 26.2414 8.49064 26.2508 8.50002 26.2563C8.50964 26.2618 8.52909 26.2673 8.54351 26.2744C12.5412 28.5724 17.4589 28.5724 21.4566 26.2744C21.471 26.2673 21.4861 26.2643 21.5001 26.2563C21.514 26.2483 21.5145 26.2414 21.5236 26.236C23.471 25.1005 25.0921 23.4816 26.2306 21.5359C26.2395 21.5235 26.2505 21.5134 26.2585 21.4999C26.2665 21.4864 26.2635 21.48 26.2686 21.4699C28.5771 17.4654 28.5771 12.5344 26.2686 8.52988C26.2635 8.51981 26.264 8.50951 26.2585 8.4999C26.253 8.49052 26.2436 8.48548 26.2381 8.47701ZM21.4245 25.127L20.6829 23.843C20.5944 23.6869 20.4289 23.5905 20.2494 23.5901C20.07 23.5896 19.9043 23.6855 19.8148 23.8409C19.7255 23.9966 19.7262 24.1881 19.8171 24.3429L20.5596 25.629C18.9947 26.4513 17.2664 26.9153 15.5001 26.9874V25.4999C15.5001 25.2238 15.2761 25 15 25C14.724 25 14.4999 25.2238 14.4999 25.4999V26.9874C12.7337 26.9155 11.0056 26.4516 9.4405 25.6294L10.183 24.3433C10.2739 24.1886 10.2745 23.997 10.1853 23.8416C10.0958 23.686 9.93008 23.5901 9.75063 23.5905C9.57119 23.591 9.40571 23.6874 9.31713 23.8435L8.57555 25.1275C7.08553 24.1783 5.82165 22.9144 4.87247 21.4244L6.1565 20.6828C6.3126 20.5942 6.40896 20.4288 6.40942 20.2493C6.40987 20.0699 6.31397 19.9042 6.15833 19.8147C6.00292 19.7254 5.81135 19.7261 5.65662 19.817L4.37054 20.5595C3.54816 18.9946 3.08422 17.2663 3.01258 15.5H4.50008C4.77612 15.5 4.99996 15.2759 4.99996 14.9999C4.99996 14.7239 4.77612 14.4998 4.50008 14.4998H3.01258C3.08422 12.7335 3.54816 11.0052 4.37054 9.44038L5.65662 10.1829C5.81135 10.2737 6.00292 10.2744 6.15833 10.1852C6.31397 10.0957 6.40987 9.92995 6.40942 9.75051C6.40896 9.57107 6.3126 9.40559 6.1565 9.31701L4.87247 8.57543C5.82165 7.08541 7.08553 5.82153 8.57555 4.87235L9.31713 6.15638C9.40571 6.31248 9.57119 6.40884 9.75063 6.40929C9.93008 6.40975 10.0958 6.31385 10.1853 6.15821C10.2745 6.0028 10.2739 5.81123 10.183 5.6565L9.4405 4.37041C11.0056 3.54827 12.7337 3.08433 14.4999 3.01246V4.49996C14.4999 4.77599 14.724 4.99984 15 4.99984C15.2761 4.99984 15.5001 4.77599 15.5001 4.49996V3.01246C17.2664 3.08433 18.9945 3.54827 20.5596 4.37041L19.8171 5.6565C19.7262 5.81123 19.7255 6.0028 19.8148 6.15821C19.9043 6.31385 20.07 6.40975 20.2494 6.40929C20.4289 6.40884 20.5944 6.31248 20.6829 6.15638L21.4245 4.87235C22.9145 5.82153 24.1784 7.08541 25.1276 8.57543L23.8436 9.31701C23.6875 9.40559 23.5911 9.57107 23.5907 9.75051C23.5902 9.92995 23.6861 10.0957 23.8417 10.1852C23.9972 10.2744 24.1887 10.2737 24.3435 10.1829L25.6295 9.44038C26.4519 11.0052 26.9159 12.7335 26.9875 14.4998H25.5C25.224 14.4998 25.0001 14.7239 25.0001 14.9999C25.0001 15.2759 25.224 15.5 25.5 15.5H26.9875C26.9159 17.2663 26.4519 18.9946 25.6295 20.5595L24.3435 19.817C24.1887 19.7261 23.9972 19.7254 23.8417 19.8147C23.6861 19.9042 23.5902 20.0699 23.5907 20.2493C23.5911 20.4288 23.6875 20.5942 23.8436 20.6828L25.1276 21.4244C24.1784 22.9144 22.9145 24.1783 21.4245 25.1275V25.127Z" fill="#FFB75E"/>
<path d="M15.5003 13.071V6.99988C15.5003 6.72385 15.2762 6.5 15.0001 6.5C14.7241 6.5 14.5 6.72385 14.5 6.99988V13.071C13.7939 13.2495 13.2419 13.8002 13.0618 14.5061C12.8816 15.2119 13.1023 15.9599 13.6367 16.455L11.5612 20.2604C11.4289 20.503 11.5182 20.8067 11.7606 20.939C12.0032 21.0713 12.3069 20.9821 12.4392 20.7394L14.5147 16.9336C14.6731 16.9757 14.8363 16.9981 15.0001 17C16.0061 17.0013 16.8557 16.2538 16.9827 15.2559C17.1098 14.2582 16.4744 13.3216 15.5003 13.071ZM15.0001 16C14.4479 16 14.0002 15.5523 14.0002 15C14.0002 14.4477 14.4479 14 15.0001 14C15.5524 14 16.0001 14.4477 16.0001 15C16.0001 15.5523 15.5524 16 15.0001 16Z" fill="#FFB75E"/>
</svg>
